<svg width="21" height="20" viewBox="0 0 21 20" fill="none" xmlns="http://www.w3.org/2000/svg">
<mask id="mask0_483_1546" style="mask-type:alpha" maskUnits="userSpaceOnUse" x="0" y="0" width="21" height="20">
<rect x="0.5" width="20" height="20" fill="#D9D9D9"/>
</mask>
<g mask="url(#mask0_483_1546)">
<path d="M10.4998 10.6315L3.99984 6.80606V14.2436C3.99984 14.3184 4.02387 14.3799 4.07192 14.4279C4.11998 14.476 4.18143 14.5 4.2563 14.5H12.2082V15.5834H4.2563C3.88116 15.5834 3.56407 15.4538 3.30505 15.1946C3.04602 14.9354 2.9165 14.6181 2.9165 14.2427V5.75065C2.9165 5.37523 3.04602 5.05905 3.30505 4.8021C3.56407 4.54516 3.88116 4.41669 4.2563 4.41669H16.7434C17.1185 4.41669 17.4356 4.5462 17.6946 4.80523C17.9537 5.06426 18.0832 5.38134 18.0832 5.75648V11.2084H16.9998V6.80606L10.4998 10.6315ZM10.4998 9.22919L16.8717 5.50002H4.12796L10.4998 9.22919ZM16.3396 17.7452L15.5736 16.9792L16.9615 15.5834H13.548V14.5H16.9694L15.5736 13.1042L16.3396 12.3381L19.0432 15.0417L16.3396 17.7452ZM3.99984 6.80606V15.0721V11V11.04V5.50002V6.80606Z" fill="#6E6E6E"/>
</g>
</svg>
