<svg width="21" height="20" viewBox="0 0 21 20" fill="none" xmlns="http://www.w3.org/2000/svg">
<mask id="mask0_483_1554" style="mask-type:alpha" maskUnits="userSpaceOnUse" x="0" y="0" width="21" height="20">
<rect x="0.5" width="20" height="20" fill="#D9D9D9"/>
</mask>
<g mask="url(#mask0_483_1554)">
<path d="M15.4038 7.7756L14.6459 7.00165L16.0417 5.60581H11.6124V4.52248H16.0417L14.6299 3.08977L15.4038 2.35248L18.1155 5.0481L15.4038 7.7756ZM15.9711 16.5625C14.4563 16.4375 13.0001 16.0376 11.6026 15.3629C10.2052 14.6882 8.93868 13.783 7.80299 12.6475C6.67271 11.5118 5.77715 10.25 5.11632 8.86206C4.45549 7.47428 4.05563 6.02296 3.91674 4.5081C3.88896 4.21644 3.97431 3.96158 4.17278 3.74352C4.37111 3.5256 4.6191 3.41665 4.91674 3.41665H7.09299C7.34507 3.41665 7.56195 3.49227 7.74361 3.64352C7.92528 3.79463 8.05188 3.99199 8.1234 4.2356L8.55945 5.97915C8.5925 6.16498 8.58208 6.34658 8.5282 6.52394C8.47417 6.7013 8.38625 6.84553 8.26445 6.95665L6.33986 8.83019C6.64958 9.4113 6.99306 9.95831 7.37028 10.4712C7.74736 10.984 8.16063 11.4636 8.61007 11.91C9.05382 12.3536 9.5332 12.7645 10.0482 13.1427C10.5632 13.5209 11.1193 13.8649 11.7165 14.1748L13.6907 12.2469C13.8072 12.125 13.9408 12.0438 14.0915 12.0031C14.2421 11.9625 14.4103 11.9562 14.5963 11.9839L16.2644 12.351C16.5165 12.4205 16.716 12.5487 16.863 12.7356C17.0099 12.9225 17.0834 13.1448 17.0834 13.4023V15.5625C17.0834 15.8601 16.971 16.1081 16.7461 16.3064C16.5211 16.5049 16.2628 16.5903 15.9711 16.5625ZM5.85257 7.77248L7.42319 6.26602C7.44986 6.24463 7.46722 6.21526 7.47528 6.17789C7.48333 6.14053 7.48201 6.10581 7.47132 6.07373L7.1057 4.6281C7.095 4.58547 7.07632 4.55345 7.04965 4.53206C7.02299 4.51067 6.98826 4.49998 6.94549 4.49998H5.1459C5.11382 4.49998 5.08708 4.51067 5.06569 4.53206C5.04444 4.55345 5.03382 4.58019 5.03382 4.61227C5.07646 5.14005 5.16965 5.66644 5.3134 6.19144C5.45701 6.71658 5.63674 7.24359 5.85257 7.77248ZM12.8109 14.6827C13.3091 14.9019 13.83 15.0683 14.3736 15.1821C14.9174 15.2957 15.4221 15.3792 15.8878 15.4327C15.9199 15.4327 15.9466 15.422 15.968 15.4006C15.9894 15.3792 16.0001 15.3525 16.0001 15.3204V13.5256C16.0001 13.4828 15.9894 13.4481 15.968 13.4214C15.9466 13.3948 15.9146 13.3761 15.8719 13.3654L14.5178 13.0721C14.4857 13.0614 14.4576 13.06 14.4336 13.0681C14.4096 13.0762 14.3842 13.0935 14.3574 13.1202L12.8109 14.6827Z" fill="#6E6E6E"/>
</g>
</svg>
